HIERARCHY
ROOT hip
{
  OFFSET 0 0 0
  CHANNELS 6 Xposition Yposition Zposition Zrotation Yrotation Xrotation
  JOINT abdomen
  {
    OFFSET 0 20.6881 -0.73152
    CHANNELS 3 Zrotation Xrotation Yrotation
    JOINT chest
    {
      OFFSET 0 11.7043 -0.48768
      CHANNELS 3 Zrotation Xrotation Yrotation
      JOINT neck
      {
        OFFSET 0 22.1894 -2.19456
        CHANNELS 3 Zrotation Xrotation Yrotation
        JOINT head
        {
          OFFSET -0.24384 7.07133 1.2192
          CHANNELS 3 Zrotation Xrotation Yrotation
          JOINT leftEye
          {
            OFFSET 4.14528 8.04674 8.04672
            CHANNELS 3 Zrotation Xrotation Yrotation
            End Site
            {
              OFFSET 1 0 0
            }
          }
          JOINT rightEye
          {
            OFFSET -3.6576 8.04674 8.04672
            CHANNELS 3 Zrotation Xrotation Yrotation
            End Site
            {
              OFFSET 1 0 0
            }
          }
        }
      }
      JOINT rCollar
      {
        OFFSET -2.68224 19.2634 -4.8768
        CHANNELS 3 Zrotation Xrotation Yrotation
        JOINT rShldr
        {
          OFFSET -8.77824 -1.95073 1.46304
          CHANNELS 3 Zrotation Xrotation Yrotation
          JOINT rForeArm
          {
            OFFSET -28.1742 -1.7115 0.48768
            CHANNELS 3 Zrotation Xrotation Yrotation
            JOINT rHand
            {
              OFFSET -22.5879 0.773209 7.07136
              CHANNELS 3 Zrotation Xrotation Yrotation
              JOINT rThumb1
              {
                OFFSET -1.2192 -0.487915 3.41376
                CHANNELS 3 Zrotation Xrotation Yrotation
                JOINT rThumb2
                {
                  OFFSET -3.37035 -0.52449 3.41376
                  CHANNELS 3 Zrotation Xrotation Yrotation
                  End Site
                  {
                    OFFSET -1.78271 -1.18214 1.43049
                  }
                }
              }
              JOINT rIndex1
              {
                OFFSET -7.75947 0.938293 5.60832
                CHANNELS 3 Zrotation Xrotation Yrotation
                JOINT rIndex2
                {
                  OFFSET -2.54057 -0.884171 1.56538
                  CHANNELS 3 Zrotation Xrotation Yrotation
                  End Site
                  {
                    OFFSET -1.62519 -0.234802 1.16502
                  }
                }
              }
              JOINT rMid1
              {
                OFFSET -8.24714 1.18213 3.41376
                CHANNELS 3 Zrotation Xrotation Yrotation
                JOINT rMid2
                {
                  OFFSET -3.10165 -0.590103 1.0647
                  CHANNELS 3 Zrotation Xrotation Yrotation
                  End Site
                  {
                    OFFSET -2.48547 -0.328903 0.83742
                  }
                }
              }
              JOINT rRing1
              {
                OFFSET -8.82822 0.546677 1.51678
                CHANNELS 3 Zrotation Xrotation Yrotation
                JOINT rRing2
                {
                  OFFSET -2.60934 -0.819778 -0.0198488
                  CHANNELS 3 Zrotation Xrotation Yrotation
                  End Site
                  {
                    OFFSET -2.33842 -0.294052 0.168128
                  }
                }
              }
              JOINT rPinky1
              {
                OFFSET -8.27202 -0.0477905 -0.4584
                CHANNELS 3 Zrotation Xrotation Yrotation
                JOINT rPinky2
                {
                  OFFSET -1.82734 -0.647385 -0.700984
                  CHANNELS 3 Zrotation Xrotation Yrotation
                  End Site
                  {
                    OFFSET -1.69225 -0.51767 -0.607171
                  }
                }
              }
            }
          }
        }
      }
      JOINT lCollar
      {
        OFFSET 2.68224 19.2634 -4.8768
        CHANNELS 3 Zrotation Xrotation Yrotation
        JOINT lShldr
        {
          OFFSET 8.77824 -1.95073 1.46304
          CHANNELS 3 Zrotation Xrotation Yrotation
          JOINT lForeArm
          {
            OFFSET 28.1742 -1.7115 0.48768
            CHANNELS 3 Zrotation Xrotation Yrotation
            JOINT lHand
            {
              OFFSET 22.5879 0.773209 7.07136
              CHANNELS 3 Zrotation Xrotation Yrotation
              JOINT lThumb1
              {
                OFFSET 1.2192 -0.487915 3.41376
                CHANNELS 3 Zrotation Xrotation Yrotation
                JOINT lThumb2
                {
                  OFFSET 3.37035 -0.52449 3.41376
                  CHANNELS 3 Zrotation Xrotation Yrotation
                  End Site
                  {
                    OFFSET 1.78271 -1.18214 1.43049
                  }
                }
              }
              JOINT lIndex1
              {
                OFFSET 7.75947 0.938293 5.60832
                CHANNELS 3 Zrotation Xrotation Yrotation
                JOINT lIndex2
                {
                  OFFSET 2.54057 -0.884171 1.56538
                  CHANNELS 3 Zrotation Xrotation Yrotation
                  End Site
                  {
                    OFFSET 1.62519 -0.234802 1.16502
                  }
                }
              }
              JOINT lMid1
              {
                OFFSET 8.24714 1.18213 3.41376
                CHANNELS 3 Zrotation Xrotation Yrotation
                JOINT lMid2
                {
                  OFFSET 3.10165 -0.590103 1.0647
                  CHANNELS 3 Zrotation Xrotation Yrotation
                  End Site
                  {
                    OFFSET 2.48547 -0.328903 0.83742
                  }
                }
              }
              JOINT lRing1
              {
                OFFSET 8.82822 0.546677 1.51678
                CHANNELS 3 Zrotation Xrotation Yrotation
                JOINT lRing2
                {
                  OFFSET 2.60934 -0.819778 -0.0198488
                  CHANNELS 3 Zrotation Xrotation Yrotation
                  End Site
                  {
                    OFFSET 2.33842 -0.294052 0.168128
                  }
                }
              }
              JOINT lPinky1
              {
                OFFSET 8.27202 -0.0477905 -0.4584
                CHANNELS 3 Zrotation Xrotation Yrotation
                JOINT lPinky2
                {
                  OFFSET 1.82734 -0.647385 -0.700984
                  CHANNELS 3 Zrotation Xrotation Yrotation
                  End Site
                  {
                    OFFSET 1.69225 -0.51767 -0.607171
                  }
                }
              }
            }
          }
        }
      }
    }
  }
  JOINT rButtock
  {
    OFFSET -8.77824 4.35084 1.2192
    CHANNELS 3 Zrotation Xrotation Yrotation
    JOINT rThigh
    {
      OFFSET 0 -1.70687 -2.19456
      CHANNELS 3 Zrotation Xrotation Yrotation
      JOINT rShin
      {
        OFFSET 0 -36.8199 0.73152
        CHANNELS 3 Zrotation Xrotation Yrotation
        JOINT rFoot
        {
          OFFSET 0.73152 -45.1104 -5.12064
          CHANNELS 3 Zrotation Xrotation Yrotation
          End Site
          {
            OFFSET -1.1221 -3.69964 12.103
          }
        }
      }
    }
  }
  JOINT lButtock
  {
    OFFSET 8.77824 4.35084 1.2192
    CHANNELS 3 Zrotation Xrotation Yrotation
    JOINT lThigh
    {
      OFFSET 0 -1.70687 -2.19456
      CHANNELS 3 Zrotation Xrotation Yrotation
      JOINT lShin
      {
        OFFSET 0 -36.8199 0.73152
        CHANNELS 3 Zrotation Xrotation Yrotation
        JOINT lFoot
        {
          OFFSET -0.73152 -45.1104 -5.12064
          CHANNELS 3 Zrotation Xrotation Yrotation
          End Site
          {
            OFFSET 1.1221 -3.69964 12.103
          }
        }
      }
    }
  }
}
MOTION
Frames:	5
Frame Time:	0.03333
-0.15790000325068831 80.35230040550232 -0.10300000431016088 -0.7905495762825012 3.7340197563171387 4.605217456817627 -1.6221227645874023 8.692001342773438 1.886056900024414 2.415001392364502 -6.982624530792236 0.6084463000297546 -4.262187957763672 10.935491561889648 -3.585747003555298 6.094378471374512 -23.491992950439453 -5.467938423156738 -0.0 0.0 -0.0 -0.0 0.0 -0.0 -0.0 0.0 -0.0 66.64849853515625 25.941402435302734 1.544323205947876 -13.758699417114258 -6.761331558227539 25.0696964263916 -0.0222812257707119 5.431042194366455 0.7650162577629089 -0.0 0.0 -0.0 -0.0 0.0 -0.0 -0.0 0.0 -0.0 7.73087739944458 5.47489595413208 0.41732463240623474 -0.0 0.0 -0.0 2.9054994583129883 0.9650753736495972 0.10300876200199127 -0.0 0.0 -0.0 10.278595924377441 0.7317469120025635 0.026285577565431595 -0.0 0.0 -0.0 2.221662759780884 -0.7335850596427917 -0.20831839740276337 -0.0 0.0 -0.0 -68.90550231933594 27.45789337158203 -19.997400283813477 12.918196678161621 -6.113784313201904 -23.401805877685547 0.18127702176570892 12.043701171875 -1.7183036804199219 -0.0 0.0 -0.0 -0.0 0.0 -0.0 -0.0 0.0 -0.0 -7.73087739944458 5.47489595413208 -0.41732463240623474 -0.0 0.0 -0.0 -2.9054994583129883 0.9650753736495972 -0.10300876200199127 -0.0 0.0 -0.0 -10.278595924377441 0.7317469120025635 -0.026285577565431595 -0.0 0.0 -0.0 -2.221662759780884 -0.7335850596427917 0.20831839740276337 -0.0 0.0 -0.0 1.9946990013122559 -29.677703857421875 0.5429919362068176 -0.48063355684280396 46.05940628051758 0.9161111116409302 -4.221938610076904 -12.775593757629395 -11.00329303741455 -0.0 0.0 -0.0 5.06019401550293 -32.04490280151367 -3.281114339828491 0.4711689352989197 47.24190139770508 -0.972634494304657 4.614360809326172 -10.51400375366211 15.090803146362305
-0.299000006634742 80.22810220718384 -0.19600000232458115 -0.8303275108337402 3.7290918827056885 4.56179666519165 -1.4580096006393433 8.74306869506836 1.8679966926574707 2.4287290573120117 -6.972872257232666 0.6103521585464478 -4.270847320556641 10.90849494934082 -3.6228935718536377 5.980978965759277 -23.34929656982422 -5.568441390991211 -0.0 0.0 -0.0 -0.0 0.0 -0.0 -0.0 0.0 -0.0 65.91870880126953 24.994497299194336 2.160468339920044 -13.562088012695312 -6.606420993804932 24.677305221557617 -0.037773050367832184 5.539087295532227 0.7808206081390381 -0.0 0.0 -0.0 -0.0 0.0 -0.0 -0.0 0.0 -0.0 7.73087739944458 5.47489595413208 0.41732463240623474 -0.0 0.0 -0.0 2.9054994583129883 0.9650753736495972 0.10300876200199127 -0.0 0.0 -0.0 10.278595924377441 0.7317469120025635 0.026285577565431595 -0.0 0.0 -0.0 2.221662759780884 -0.7335850596427917 -0.20831839740276337 -0.0 0.0 -0.0 -68.65370178222656 27.71360969543457 -20.60198974609375 13.163311958312988 -6.29897928237915 -23.884798049926758 0.13091489672660828 10.261886596679688 -1.457901120185852 -0.0 0.0 -0.0 -0.0 0.0 -0.0 -0.0 0.0 -0.0 -7.73087739944458 5.47489595413208 -0.41732463240623474 -0.0 0.0 -0.0 -2.9054994583129883 0.9650753736495972 -0.10300876200199127 -0.0 0.0 -0.0 -10.278595924377441 0.7317469120025635 -0.026285577565431595 -0.0 0.0 -0.0 -2.221662759780884 -0.7335850596427917 0.20831839740276337 -0.0 0.0 -0.0 2.1108500957489014 -29.859792709350586 0.40560775995254517 -0.486737459897995 46.35770034790039 0.9295541048049927 -4.203122615814209 -12.919201850891113 -10.91439437866211 -0.0 0.0 -0.0 4.39744758605957 -32.43840026855469 -3.2991249561309814 0.49142178893089294 47.88449478149414 -0.9977267384529114 4.446223258972168 -11.418803215026855 13.722188949584961
-0.39090000791475177 80.12250065803528 -0.27500000433064997 -0.902944028377533 3.7866289615631104 4.53379487991333 -1.30411696434021 8.747594833374023 1.8274991512298584 2.4363632202148438 -6.956248760223389 0.6055459976196289 -4.2849321365356445 10.859003067016602 -3.6599199771881104 5.866750717163086 -23.19199562072754 -5.667384624481201 -0.0 0.0 -0.0 -0.0 0.0 -0.0 -0.0 0.0 -0.0 65.21929168701172 24.014102935791016 2.771111488342285 -13.397796630859375 -6.478682518005371 24.350099563598633 -0.03869403898715973 5.606007099151611 0.7902954816818237 -0.0 0.0 -0.0 -0.0 0.0 -0.0 -0.0 0.0 -0.0 7.73087739944458 5.47489595413208 0.41732463240623474 -0.0 0.0 -0.0 2.9054994583129883 0.9650753736495972 0.10300876200199127 -0.0 0.0 -0.0 10.278595924377441 0.7317469120025635 0.026285577565431595 -0.0 0.0 -0.0 2.221662759780884 -0.7335850596427917 -0.20831839740276337 -0.0 0.0 -0.0 -68.36599731445312 27.983606338500977 -21.22159194946289 13.403900146484375 -6.483375072479248 -24.362192153930664 0.07877752184867859 8.66067886352539 -1.225561261177063 -0.0 0.0 -0.0 -0.0 0.0 -0.0 -0.0 0.0 -0.0 -7.73087739944458 5.47489595413208 -0.41732463240623474 -0.0 0.0 -0.0 -2.9054994583129883 0.9650753736495972 -0.10300876200199127 -0.0 0.0 -0.0 -10.278595924377441 0.7317469120025635 -0.026285577565431595 -0.0 0.0 -0.0 -2.221662759780884 -0.7335850596427917 0.20831839740276337 -0.0 0.0 -0.0 2.2045395374298096 -30.062397003173828 0.2780036926269531 -0.4944007694721222 46.6464958190918 0.9437199234962463 -4.189309120178223 -13.058087348937988 -10.841795921325684 -0.0 0.0 -0.0 3.657139301300049 -32.820899963378906 -3.39892840385437 0.511838972568512 48.4123649597168 -1.0203585624694824 4.2806620597839355 -12.330699920654297 12.504109382629395
-0.481400010176003 80.04950284957886 -0.359000003663823 -0.906787097454071 3.8719229698181152 4.54299783706665 -1.212670922279358 8.716212272644043 1.7682955265045166 2.4542958736419678 -6.924938201904297 0.5926637649536133 -4.28277063369751 10.788902282714844 -3.696444034576416 5.723323822021484 -23.04830551147461 -5.770414352416992 -0.0 0.0 -0.0 -0.0 0.0 -0.0 -0.0 0.0 -0.0 64.53889465332031 22.98299789428711 3.393078327178955 -13.274002075195312 -6.383123874664307 24.104705810546875 -0.03806360810995102 5.559990882873535 0.7838640213012695 -0.0 0.0 -0.0 -0.0 0.0 -0.0 -0.0 0.0 -0.0 7.73087739944458 5.47489595413208 0.41732463240623474 -0.0 0.0 -0.0 2.9054994583129883 0.9650753736495972 0.10300876200199127 -0.0 0.0 -0.0 10.278595924377441 0.7317469120025635 0.026285577565431595 -0.0 0.0 -0.0 2.221662759780884 -0.7335850596427917 -0.20831839740276337 -0.0 0.0 -0.0 -68.07080078125 28.21319580078125 -21.84760284423828 13.605297088623047 -6.6401472091674805 -24.76380157470703 0.07306575030088425 7.688908100128174 -1.0872673988342285 -0.0 0.0 -0.0 -0.0 0.0 -0.0 -0.0 0.0 -0.0 -7.73087739944458 5.47489595413208 -0.41732463240623474 -0.0 0.0 -0.0 -2.9054994583129883 0.9650753736495972 -0.10300876200199127 -0.0 0.0 -0.0 -10.278595924377441 0.7317469120025635 -0.026285577565431595 -0.0 0.0 -0.0 -2.221662759780884 -0.7335850596427917 0.20831839740276337 -0.0 0.0 -0.0 2.2396585941314697 -30.263093948364258 0.15922468900680542 -0.49937987327575684 46.896202087402344 0.9555957317352295 -4.181119918823242 -13.147889137268066 -10.810595512390137 -0.0 0.0 -0.0 2.8397347927093506 -33.1764030456543 -3.494475841522217 0.5220221877098083 48.80797576904297 -1.0382646322250366 4.257976531982422 -13.25368595123291 11.840204238891602
-0.5336000118404627 79.96770143508911 -0.43100000475533307 -0.9081633687019348 3.90281343460083 4.566091060638428 -1.1676234006881714 8.657575607299805 1.7231637239456177 2.472461223602295 -6.894138336181641 0.5825702548027039 -4.2842488288879395 10.719704627990723 -3.72640323638916 5.6088032722473145 -22.927003860473633 -5.853339672088623 -0.0 0.0 -0.0 -0.0 0.0 -0.0 -0.0 0.0 -0.0 63.8860969543457 21.95940399169922 4.019833564758301 -13.167996406555176 -6.30222225189209 23.8944034576416 -0.03770238161087036 5.533248424530029 0.780183732509613 -0.0 0.0 -0.0 -0.0 0.0 -0.0 -0.0 0.0 -0.0 7.73087739944458 5.47489595413208 0.41732463240623474 -0.0 0.0 -0.0 2.9054994583129883 0.9650753736495972 0.10300876200199127 -0.0 0.0 -0.0 10.278595924377441 0.7317469120025635 0.026285577565431595 -0.0 0.0 -0.0 2.221662759780884 -0.7335850596427917 -0.20831839740276337 -0.0 0.0 -0.0 -67.74809265136719 28.44340705871582 -22.477596282958984 13.802488327026367 -6.796201229095459 -25.157398223876953 0.05832446366548538 6.875030517578125 -0.9709499478340149 -0.0 0.0 -0.0 -0.0 0.0 -0.0 -0.0 0.0 -0.0 -7.73087739944458 5.47489595413208 -0.41732463240623474 -0.0 0.0 -0.0 -2.9054994583129883 0.9650753736495972 -0.10300876200199127 -0.0 0.0 -0.0 -10.278595924377441 0.7317469120025635 -0.026285577565431595 -0.0 0.0 -0.0 -2.221662759780884 -0.7335850596427917 0.20831839740276337 -0.0 0.0 -0.0 2.2331700325012207 -30.469608306884766 0.03499956801533699 -0.5049782395362854 47.118099212646484 0.9663923978805542 -4.1665778160095215 -13.22559928894043 -10.766096115112305 -0.0 0.0 -0.0 1.9910130500793457 -33.51129913330078 -3.61970853805542 0.5231394171714783 49.097530364990234 -1.0500845909118652 4.282764434814453 -14.134004592895508 11.408498764038086
